<mxfile host="Electron" modified="2023-12-19T13:35:01.686Z" agent="Mozilla/5.0 (Windows NT 10.0; Win64; x64) AppleWebKit/537.36 (KHTML, like Gecko) draw.io/22.1.11 Chrome/114.0.5735.289 Electron/25.9.8 Safari/537.36" etag="5QmSUL5whYnL9Ywh77As" version="22.1.11" type="device">
  <diagram id="C5RBs43oDa-KdzZeNtuy" name="Page-1">
    <mxGraphModel dx="555" dy="982" grid="1" gridSize="10" guides="1" tooltips="1" connect="1" arrows="1" fold="1" page="1" pageScale="1" pageWidth="1169" pageHeight="827" math="0" shadow="0">
      <root>
        <mxCell id="WIyWlLk6GJQsqaUBKTNV-0" />
        <mxCell id="WIyWlLk6GJQsqaUBKTNV-1" parent="WIyWlLk6GJQsqaUBKTNV-0" />
        <mxCell id="WM4lGX3-adWGy5xj4ATB-13" style="edgeStyle=none;rounded=0;orthogonalLoop=1;jettySize=auto;html=1;entryX=0;entryY=0.5;entryDx=0;entryDy=0;fontSize=12;startSize=8;endSize=8;exitX=0.027;exitY=0;exitDx=0;exitDy=0;exitPerimeter=0;endArrow=none;endFill=0;" parent="WIyWlLk6GJQsqaUBKTNV-1" source="zkfFHV4jXpPFQw0GAbJ--1" target="WM4lGX3-adWGy5xj4ATB-12" edge="1">
          <mxGeometry relative="1" as="geometry">
            <Array as="points">
              <mxPoint x="267" y="65" />
              <mxPoint x="20" y="65" />
              <mxPoint x="20" y="295" />
            </Array>
          </mxGeometry>
        </mxCell>
        <mxCell id="WM4lGX3-adWGy5xj4ATB-22" value="1,n" style="edgeLabel;html=1;align=center;verticalAlign=middle;resizable=0;points=[];fontSize=16;" parent="WM4lGX3-adWGy5xj4ATB-13" vertex="1" connectable="0">
          <mxGeometry x="0.3256" y="2" relative="1" as="geometry">
            <mxPoint x="-2" y="99" as="offset" />
          </mxGeometry>
        </mxCell>
        <mxCell id="zkfFHV4jXpPFQw0GAbJ--0" value="ingredients" style="swimlane;fontStyle=0;align=center;verticalAlign=top;childLayout=stackLayout;horizontal=1;startSize=26;horizontalStack=0;resizeParent=1;resizeLast=0;collapsible=1;marginBottom=0;rounded=0;shadow=0;strokeWidth=1;" parent="WIyWlLk6GJQsqaUBKTNV-1" vertex="1">
          <mxGeometry x="505" y="40" width="160" height="138" as="geometry">
            <mxRectangle x="230" y="140" width="160" height="26" as="alternateBounds" />
          </mxGeometry>
        </mxCell>
        <mxCell id="zkfFHV4jXpPFQw0GAbJ--1" value="- id                       numérique" style="text;align=left;verticalAlign=top;spacingLeft=4;spacingRight=4;overflow=hidden;rotatable=0;points=[[0,0.5],[1,0.5]];portConstraint=eastwest;fontStyle=4" parent="zkfFHV4jXpPFQw0GAbJ--0" vertex="1">
          <mxGeometry y="26" width="160" height="26" as="geometry" />
        </mxCell>
        <mxCell id="zkfFHV4jXpPFQw0GAbJ--2" value="- ingredientName     texte" style="text;align=left;verticalAlign=top;spacingLeft=4;spacingRight=4;overflow=hidden;rotatable=0;points=[[0,0.5],[1,0.5]];portConstraint=eastwest;rounded=0;shadow=0;html=0;" parent="zkfFHV4jXpPFQw0GAbJ--0" vertex="1">
          <mxGeometry y="52" width="160" height="26" as="geometry" />
        </mxCell>
        <mxCell id="zkfFHV4jXpPFQw0GAbJ--3" value="- measurement         texte" style="text;align=left;verticalAlign=top;spacingLeft=4;spacingRight=4;overflow=hidden;rotatable=0;points=[[0,0.5],[1,0.5]];portConstraint=eastwest;rounded=0;shadow=0;html=0;" parent="zkfFHV4jXpPFQw0GAbJ--0" vertex="1">
          <mxGeometry y="78" width="160" height="26" as="geometry" />
        </mxCell>
        <mxCell id="WM4lGX3-adWGy5xj4ATB-18" style="edgeStyle=none;rounded=0;orthogonalLoop=1;jettySize=auto;html=1;entryX=0;entryY=0.5;entryDx=0;entryDy=0;fontSize=12;startSize=8;endSize=8;exitX=-0.003;exitY=-0.054;exitDx=0;exitDy=0;exitPerimeter=0;endArrow=none;endFill=0;" parent="WIyWlLk6GJQsqaUBKTNV-1" source="zkfFHV4jXpPFQw0GAbJ--7" target="WM4lGX3-adWGy5xj4ATB-17" edge="1">
          <mxGeometry relative="1" as="geometry">
            <Array as="points">
              <mxPoint x="10" y="465" />
              <mxPoint x="10" y="630" />
              <mxPoint x="220" y="630" />
              <mxPoint x="220" y="695" />
              <mxPoint x="220" y="755" />
            </Array>
          </mxGeometry>
        </mxCell>
        <mxCell id="WM4lGX3-adWGy5xj4ATB-24" value="1,n" style="edgeLabel;html=1;align=center;verticalAlign=middle;resizable=0;points=[];fontSize=16;" parent="WM4lGX3-adWGy5xj4ATB-18" vertex="1" connectable="0">
          <mxGeometry x="0.8164" y="-1" relative="1" as="geometry">
            <mxPoint as="offset" />
          </mxGeometry>
        </mxCell>
        <mxCell id="zkfFHV4jXpPFQw0GAbJ--6" value="quantités" style="swimlane;fontStyle=0;align=center;verticalAlign=top;childLayout=stackLayout;horizontal=1;startSize=26;horizontalStack=0;resizeParent=1;resizeLast=0;collapsible=1;marginBottom=0;rounded=0;shadow=0;strokeWidth=1;" parent="WIyWlLk6GJQsqaUBKTNV-1" vertex="1">
          <mxGeometry x="37" y="440" width="190" height="164" as="geometry">
            <mxRectangle x="130" y="380" width="160" height="26" as="alternateBounds" />
          </mxGeometry>
        </mxCell>
        <mxCell id="zkfFHV4jXpPFQw0GAbJ--7" value="- id                                   texte" style="text;align=left;verticalAlign=top;spacingLeft=4;spacingRight=4;overflow=hidden;rotatable=0;points=[[0,0.5],[1,0.5]];portConstraint=eastwest;fontStyle=4" parent="zkfFHV4jXpPFQw0GAbJ--6" vertex="1">
          <mxGeometry y="26" width="190" height="26" as="geometry" />
        </mxCell>
        <mxCell id="iEDy4Q6GCZVCRz8ty0we-8" value="- recipeID                    numérique" style="text;align=left;verticalAlign=top;spacingLeft=4;spacingRight=4;overflow=hidden;rotatable=0;points=[[0,0.5],[1,0.5]];portConstraint=eastwest;rounded=0;shadow=0;html=0;" parent="zkfFHV4jXpPFQw0GAbJ--6" vertex="1">
          <mxGeometry y="52" width="190" height="26" as="geometry" />
        </mxCell>
        <mxCell id="zkfFHV4jXpPFQw0GAbJ--8" value="ingredientQuantities   numérique" style="text;align=left;verticalAlign=top;spacingLeft=4;spacingRight=4;overflow=hidden;rotatable=0;points=[[0,0.5],[1,0.5]];portConstraint=eastwest;rounded=0;shadow=0;html=0;" parent="zkfFHV4jXpPFQw0GAbJ--6" vertex="1">
          <mxGeometry y="78" width="190" height="26" as="geometry" />
        </mxCell>
        <mxCell id="WM4lGX3-adWGy5xj4ATB-19" style="edgeStyle=none;rounded=0;orthogonalLoop=1;jettySize=auto;html=1;entryX=1;entryY=0.5;entryDx=0;entryDy=0;fontSize=12;startSize=8;endSize=8;exitX=0.012;exitY=0.002;exitDx=0;exitDy=0;endArrow=none;endFill=0;exitPerimeter=0;" parent="WIyWlLk6GJQsqaUBKTNV-1" source="zkfFHV4jXpPFQw0GAbJ--14" target="WM4lGX3-adWGy5xj4ATB-17" edge="1">
          <mxGeometry relative="1" as="geometry">
            <Array as="points">
              <mxPoint x="480" y="590" />
              <mxPoint x="480" y="755" />
            </Array>
          </mxGeometry>
        </mxCell>
        <mxCell id="WM4lGX3-adWGy5xj4ATB-25" value="1,n" style="edgeLabel;html=1;align=center;verticalAlign=middle;resizable=0;points=[];fontSize=16;" parent="WM4lGX3-adWGy5xj4ATB-19" vertex="1" connectable="0">
          <mxGeometry x="0.7571" y="1" relative="1" as="geometry">
            <mxPoint x="-4" y="-1" as="offset" />
          </mxGeometry>
        </mxCell>
        <mxCell id="zkfFHV4jXpPFQw0GAbJ--13" value="recettes" style="swimlane;fontStyle=0;align=center;verticalAlign=top;childLayout=stackLayout;horizontal=1;startSize=26;horizontalStack=0;resizeParent=1;resizeLast=0;collapsible=1;marginBottom=0;rounded=0;shadow=0;strokeWidth=1;" parent="WIyWlLk6GJQsqaUBKTNV-1" vertex="1">
          <mxGeometry x="530" y="564" width="160" height="216" as="geometry">
            <mxRectangle x="340" y="380" width="170" height="26" as="alternateBounds" />
          </mxGeometry>
        </mxCell>
        <mxCell id="zkfFHV4jXpPFQw0GAbJ--14" value="- id                     numérique" style="text;align=left;verticalAlign=top;spacingLeft=4;spacingRight=4;overflow=hidden;rotatable=0;points=[[0,0.5],[1,0.5]];portConstraint=eastwest;fontStyle=4" parent="zkfFHV4jXpPFQw0GAbJ--13" vertex="1">
          <mxGeometry y="26" width="160" height="26" as="geometry" />
        </mxCell>
        <mxCell id="iEDy4Q6GCZVCRz8ty0we-0" value="- recipeName         texte" style="text;align=left;verticalAlign=top;spacingLeft=4;spacingRight=4;overflow=hidden;rotatable=0;points=[[0,0.5],[1,0.5]];portConstraint=eastwest;" parent="zkfFHV4jXpPFQw0GAbJ--13" vertex="1">
          <mxGeometry y="52" width="160" height="26" as="geometry" />
        </mxCell>
        <mxCell id="iEDy4Q6GCZVCRz8ty0we-1" value="- vegetarian        boolean" style="text;align=left;verticalAlign=top;spacingLeft=4;spacingRight=4;overflow=hidden;rotatable=0;points=[[0,0.5],[1,0.5]];portConstraint=eastwest;" parent="zkfFHV4jXpPFQw0GAbJ--13" vertex="1">
          <mxGeometry y="78" width="160" height="26" as="geometry" />
        </mxCell>
        <mxCell id="iEDy4Q6GCZVCRz8ty0we-2" value="- preparationTime  texte" style="text;align=left;verticalAlign=top;spacingLeft=4;spacingRight=4;overflow=hidden;rotatable=0;points=[[0,0.5],[1,0.5]];portConstraint=eastwest;" parent="zkfFHV4jXpPFQw0GAbJ--13" vertex="1">
          <mxGeometry y="104" width="160" height="26" as="geometry" />
        </mxCell>
        <mxCell id="iEDy4Q6GCZVCRz8ty0we-3" value="- recipeType          texte" style="text;align=left;verticalAlign=top;spacingLeft=4;spacingRight=4;overflow=hidden;rotatable=0;points=[[0,0.5],[1,0.5]];portConstraint=eastwest;" parent="zkfFHV4jXpPFQw0GAbJ--13" vertex="1">
          <mxGeometry y="130" width="160" height="26" as="geometry" />
        </mxCell>
        <mxCell id="iEDy4Q6GCZVCRz8ty0we-4" value="- lvl                        texte" style="text;align=left;verticalAlign=top;spacingLeft=4;spacingRight=4;overflow=hidden;rotatable=0;points=[[0,0.5],[1,0.5]];portConstraint=eastwest;" parent="zkfFHV4jXpPFQw0GAbJ--13" vertex="1">
          <mxGeometry y="156" width="160" height="26" as="geometry" />
        </mxCell>
        <mxCell id="zkfFHV4jXpPFQw0GAbJ--17" value="étapes" style="swimlane;fontStyle=0;align=center;verticalAlign=top;childLayout=stackLayout;horizontal=1;startSize=26;horizontalStack=0;resizeParent=1;resizeLast=0;collapsible=1;marginBottom=0;rounded=0;shadow=0;strokeWidth=1;" parent="WIyWlLk6GJQsqaUBKTNV-1" vertex="1">
          <mxGeometry x="950" y="490" width="160" height="160" as="geometry">
            <mxRectangle x="550" y="140" width="160" height="26" as="alternateBounds" />
          </mxGeometry>
        </mxCell>
        <mxCell id="zkfFHV4jXpPFQw0GAbJ--18" value="- id                   numérique" style="text;align=left;verticalAlign=top;spacingLeft=4;spacingRight=4;overflow=hidden;rotatable=0;points=[[0,0.5],[1,0.5]];portConstraint=eastwest;fontStyle=4" parent="zkfFHV4jXpPFQw0GAbJ--17" vertex="1">
          <mxGeometry y="26" width="160" height="26" as="geometry" />
        </mxCell>
        <mxCell id="zkfFHV4jXpPFQw0GAbJ--19" value="- stepName           texte" style="text;align=left;verticalAlign=top;spacingLeft=4;spacingRight=4;overflow=hidden;rotatable=0;points=[[0,0.5],[1,0.5]];portConstraint=eastwest;rounded=0;shadow=0;html=0;fontStyle=4" parent="zkfFHV4jXpPFQw0GAbJ--17" vertex="1">
          <mxGeometry y="52" width="160" height="26" as="geometry" />
        </mxCell>
        <mxCell id="zkfFHV4jXpPFQw0GAbJ--20" value="- stepNumber    numérique" style="text;align=left;verticalAlign=top;spacingLeft=4;spacingRight=4;overflow=hidden;rotatable=0;points=[[0,0.5],[1,0.5]];portConstraint=eastwest;rounded=0;shadow=0;html=0;" parent="zkfFHV4jXpPFQw0GAbJ--17" vertex="1">
          <mxGeometry y="78" width="160" height="26" as="geometry" />
        </mxCell>
        <mxCell id="zkfFHV4jXpPFQw0GAbJ--21" value="- content               texte" style="text;align=left;verticalAlign=top;spacingLeft=4;spacingRight=4;overflow=hidden;rotatable=0;points=[[0,0.5],[1,0.5]];portConstraint=eastwest;rounded=0;shadow=0;html=0;" parent="zkfFHV4jXpPFQw0GAbJ--17" vertex="1">
          <mxGeometry y="104" width="160" height="26" as="geometry" />
        </mxCell>
        <mxCell id="zkfFHV4jXpPFQw0GAbJ--22" value="- recipeID         numérique" style="text;align=left;verticalAlign=top;spacingLeft=4;spacingRight=4;overflow=hidden;rotatable=0;points=[[0,0.5],[1,0.5]];portConstraint=eastwest;rounded=0;shadow=0;html=0;" parent="zkfFHV4jXpPFQw0GAbJ--17" vertex="1">
          <mxGeometry y="130" width="160" height="26" as="geometry" />
        </mxCell>
        <mxCell id="WM4lGX3-adWGy5xj4ATB-4" style="edgeStyle=none;rounded=0;orthogonalLoop=1;jettySize=auto;html=1;fontSize=12;startSize=8;endSize=8;endArrow=none;endFill=0;entryX=0.008;entryY=-0.013;entryDx=0;entryDy=0;entryPerimeter=0;" parent="WIyWlLk6GJQsqaUBKTNV-1" source="WM4lGX3-adWGy5xj4ATB-2" target="zkfFHV4jXpPFQw0GAbJ--18" edge="1">
          <mxGeometry relative="1" as="geometry">
            <Array as="points">
              <mxPoint x="920" y="388" />
              <mxPoint x="920" y="516" />
            </Array>
          </mxGeometry>
        </mxCell>
        <mxCell id="WM4lGX3-adWGy5xj4ATB-20" value="1,n" style="edgeLabel;html=1;align=center;verticalAlign=middle;resizable=0;points=[];fontSize=16;" parent="WM4lGX3-adWGy5xj4ATB-4" vertex="1" connectable="0">
          <mxGeometry x="-0.4322" y="-1" relative="1" as="geometry">
            <mxPoint as="offset" />
          </mxGeometry>
        </mxCell>
        <mxCell id="WM4lGX3-adWGy5xj4ATB-6" style="edgeStyle=none;rounded=0;orthogonalLoop=1;jettySize=auto;html=1;fontSize=12;startSize=8;endSize=8;endArrow=none;endFill=0;entryX=1.001;entryY=-0.001;entryDx=0;entryDy=0;entryPerimeter=0;" parent="WIyWlLk6GJQsqaUBKTNV-1" source="WM4lGX3-adWGy5xj4ATB-2" target="zkfFHV4jXpPFQw0GAbJ--1" edge="1">
          <mxGeometry relative="1" as="geometry">
            <Array as="points">
              <mxPoint x="1140" y="390" />
              <mxPoint x="1140" y="330" />
              <mxPoint x="1140" y="70" />
            </Array>
          </mxGeometry>
        </mxCell>
        <mxCell id="WM4lGX3-adWGy5xj4ATB-21" value="1,n" style="edgeLabel;html=1;align=center;verticalAlign=middle;resizable=0;points=[];fontSize=16;" parent="WM4lGX3-adWGy5xj4ATB-6" vertex="1" connectable="0">
          <mxGeometry x="-0.1892" y="-1" relative="1" as="geometry">
            <mxPoint as="offset" />
          </mxGeometry>
        </mxCell>
        <mxCell id="WM4lGX3-adWGy5xj4ATB-2" value="contenir" style="swimlane;fontSize=16;rounded=1;swimlaneLine=0;" parent="WIyWlLk6GJQsqaUBKTNV-1" vertex="1">
          <mxGeometry x="950" y="363" width="144" height="50" as="geometry" />
        </mxCell>
        <mxCell id="WM4lGX3-adWGy5xj4ATB-11" style="edgeStyle=none;rounded=0;orthogonalLoop=1;jettySize=auto;html=1;fontSize=12;startSize=8;endSize=8;endArrow=none;endFill=0;entryX=0.991;entryY=-0.021;entryDx=0;entryDy=0;entryPerimeter=0;" parent="WIyWlLk6GJQsqaUBKTNV-1" source="WM4lGX3-adWGy5xj4ATB-7" edge="1" target="zkfFHV4jXpPFQw0GAbJ--14">
          <mxGeometry relative="1" as="geometry">
            <mxPoint x="790" y="436" as="targetPoint" />
            <Array as="points">
              <mxPoint x="710" y="700" />
              <mxPoint x="710" y="589" />
            </Array>
          </mxGeometry>
        </mxCell>
        <mxCell id="WM4lGX3-adWGy5xj4ATB-26" value="1,n" style="edgeLabel;html=1;align=center;verticalAlign=middle;resizable=0;points=[];fontSize=16;" parent="WM4lGX3-adWGy5xj4ATB-11" vertex="1" connectable="0">
          <mxGeometry x="-0.4931" relative="1" as="geometry">
            <mxPoint y="-41" as="offset" />
          </mxGeometry>
        </mxCell>
        <mxCell id="WM4lGX3-adWGy5xj4ATB-7" value="avoir" style="swimlane;fontSize=16;rounded=1;swimlaneLine=0;startSize=23;" parent="WIyWlLk6GJQsqaUBKTNV-1" vertex="1">
          <mxGeometry x="740" y="675" width="144" height="50" as="geometry" />
        </mxCell>
        <mxCell id="WM4lGX3-adWGy5xj4ATB-10" style="edgeStyle=none;rounded=0;orthogonalLoop=1;jettySize=auto;html=1;entryX=1;entryY=0.5;entryDx=0;entryDy=0;fontSize=12;startSize=8;endSize=8;exitX=1.001;exitY=0.03;exitDx=0;exitDy=0;endArrow=none;endFill=0;exitPerimeter=0;" parent="WIyWlLk6GJQsqaUBKTNV-1" source="zkfFHV4jXpPFQw0GAbJ--18" target="WM4lGX3-adWGy5xj4ATB-7" edge="1">
          <mxGeometry relative="1" as="geometry">
            <Array as="points">
              <mxPoint x="1130" y="517" />
              <mxPoint x="1130" y="670" />
              <mxPoint x="960" y="670" />
              <mxPoint x="920" y="670" />
              <mxPoint x="920" y="700" />
            </Array>
          </mxGeometry>
        </mxCell>
        <mxCell id="WM4lGX3-adWGy5xj4ATB-27" value="1,1" style="edgeLabel;html=1;align=center;verticalAlign=middle;resizable=0;points=[];fontSize=16;" parent="WM4lGX3-adWGy5xj4ATB-10" vertex="1" connectable="0">
          <mxGeometry x="-0.2159" y="2" relative="1" as="geometry">
            <mxPoint x="7" y="-78" as="offset" />
          </mxGeometry>
        </mxCell>
        <mxCell id="WM4lGX3-adWGy5xj4ATB-12" value="disposer" style="swimlane;fontSize=16;rounded=1;swimlaneLine=0;startSize=23;" parent="WIyWlLk6GJQsqaUBKTNV-1" vertex="1">
          <mxGeometry x="60" y="270" width="144" height="50" as="geometry" />
        </mxCell>
        <mxCell id="WM4lGX3-adWGy5xj4ATB-14" style="edgeStyle=none;rounded=0;orthogonalLoop=1;jettySize=auto;html=1;entryX=1;entryY=0.5;entryDx=0;entryDy=0;fontSize=12;startSize=8;endSize=8;exitX=0.997;exitY=-0.018;exitDx=0;exitDy=0;endArrow=none;endFill=0;exitPerimeter=0;" parent="WIyWlLk6GJQsqaUBKTNV-1" source="zkfFHV4jXpPFQw0GAbJ--7" target="WM4lGX3-adWGy5xj4ATB-12" edge="1">
          <mxGeometry relative="1" as="geometry">
            <Array as="points">
              <mxPoint x="250" y="466" />
              <mxPoint x="250" y="390" />
              <mxPoint x="250" y="295" />
            </Array>
          </mxGeometry>
        </mxCell>
        <mxCell id="WM4lGX3-adWGy5xj4ATB-23" value="1,n" style="edgeLabel;html=1;align=center;verticalAlign=middle;resizable=0;points=[];fontSize=16;" parent="WM4lGX3-adWGy5xj4ATB-14" vertex="1" connectable="0">
          <mxGeometry x="-0.4086" y="2" relative="1" as="geometry">
            <mxPoint x="2" y="-38" as="offset" />
          </mxGeometry>
        </mxCell>
        <mxCell id="WM4lGX3-adWGy5xj4ATB-17" value="recueillir" style="swimlane;fontSize=16;rounded=1;swimlaneLine=0;startSize=23;" parent="WIyWlLk6GJQsqaUBKTNV-1" vertex="1">
          <mxGeometry x="280" y="730" width="144" height="50" as="geometry" />
        </mxCell>
        <mxCell id="WM4lGX3-adWGy5xj4ATB-32" value="" style="shape=table;startSize=0;container=1;collapsible=0;childLayout=tableLayout;fontSize=16;" parent="WIyWlLk6GJQsqaUBKTNV-1" vertex="1">
          <mxGeometry y="677" width="210" height="150" as="geometry" />
        </mxCell>
        <mxCell id="WM4lGX3-adWGy5xj4ATB-33" value="" style="shape=tableRow;horizontal=0;startSize=0;swimlaneHead=0;swimlaneBody=0;strokeColor=inherit;top=0;left=0;bottom=0;right=0;collapsible=0;dropTarget=0;fillColor=none;points=[[0,0.5],[1,0.5]];portConstraint=eastwest;fontSize=16;" parent="WM4lGX3-adWGy5xj4ATB-32" vertex="1">
          <mxGeometry width="210" height="38" as="geometry" />
        </mxCell>
        <mxCell id="WM4lGX3-adWGy5xj4ATB-34" value="Projet" style="shape=partialRectangle;html=1;whiteSpace=wrap;connectable=0;strokeColor=inherit;overflow=hidden;fillColor=none;top=0;left=0;bottom=0;right=0;pointerEvents=1;fontSize=16;" parent="WM4lGX3-adWGy5xj4ATB-33" vertex="1">
          <mxGeometry width="64" height="38" as="geometry">
            <mxRectangle width="64" height="38" as="alternateBounds" />
          </mxGeometry>
        </mxCell>
        <mxCell id="WM4lGX3-adWGy5xj4ATB-35" value="Livre de recette" style="shape=partialRectangle;html=1;whiteSpace=wrap;connectable=0;strokeColor=inherit;overflow=hidden;fillColor=none;top=0;left=0;bottom=0;right=0;pointerEvents=1;fontSize=16;" parent="WM4lGX3-adWGy5xj4ATB-33" vertex="1">
          <mxGeometry x="64" width="146" height="38" as="geometry">
            <mxRectangle width="146" height="38" as="alternateBounds" />
          </mxGeometry>
        </mxCell>
        <mxCell id="WM4lGX3-adWGy5xj4ATB-37" value="" style="shape=tableRow;horizontal=0;startSize=0;swimlaneHead=0;swimlaneBody=0;strokeColor=inherit;top=0;left=0;bottom=0;right=0;collapsible=0;dropTarget=0;fillColor=none;points=[[0,0.5],[1,0.5]];portConstraint=eastwest;fontSize=16;" parent="WM4lGX3-adWGy5xj4ATB-32" vertex="1">
          <mxGeometry y="38" width="210" height="37" as="geometry" />
        </mxCell>
        <mxCell id="WM4lGX3-adWGy5xj4ATB-38" value="Titre" style="shape=partialRectangle;html=1;whiteSpace=wrap;connectable=0;strokeColor=inherit;overflow=hidden;fillColor=none;top=0;left=0;bottom=0;right=0;pointerEvents=1;fontSize=16;" parent="WM4lGX3-adWGy5xj4ATB-37" vertex="1">
          <mxGeometry width="64" height="37" as="geometry">
            <mxRectangle width="64" height="37" as="alternateBounds" />
          </mxGeometry>
        </mxCell>
        <mxCell id="WM4lGX3-adWGy5xj4ATB-39" value="MCD" style="shape=partialRectangle;html=1;whiteSpace=wrap;connectable=0;strokeColor=inherit;overflow=hidden;fillColor=none;top=0;left=0;bottom=0;right=0;pointerEvents=1;fontSize=16;" parent="WM4lGX3-adWGy5xj4ATB-37" vertex="1">
          <mxGeometry x="64" width="146" height="37" as="geometry">
            <mxRectangle width="146" height="37" as="alternateBounds" />
          </mxGeometry>
        </mxCell>
        <mxCell id="WM4lGX3-adWGy5xj4ATB-41" value="" style="shape=tableRow;horizontal=0;startSize=0;swimlaneHead=0;swimlaneBody=0;strokeColor=inherit;top=0;left=0;bottom=0;right=0;collapsible=0;dropTarget=0;fillColor=none;points=[[0,0.5],[1,0.5]];portConstraint=eastwest;fontSize=16;" parent="WM4lGX3-adWGy5xj4ATB-32" vertex="1">
          <mxGeometry y="75" width="210" height="38" as="geometry" />
        </mxCell>
        <mxCell id="WM4lGX3-adWGy5xj4ATB-42" value="Auteur" style="shape=partialRectangle;html=1;whiteSpace=wrap;connectable=0;strokeColor=inherit;overflow=hidden;fillColor=none;top=0;left=0;bottom=0;right=0;pointerEvents=1;fontSize=16;" parent="WM4lGX3-adWGy5xj4ATB-41" vertex="1">
          <mxGeometry width="64" height="38" as="geometry">
            <mxRectangle width="64" height="38" as="alternateBounds" />
          </mxGeometry>
        </mxCell>
        <mxCell id="WM4lGX3-adWGy5xj4ATB-43" value="Mavraj Alessia" style="shape=partialRectangle;html=1;whiteSpace=wrap;connectable=0;strokeColor=inherit;overflow=hidden;fillColor=none;top=0;left=0;bottom=0;right=0;pointerEvents=1;fontSize=16;" parent="WM4lGX3-adWGy5xj4ATB-41" vertex="1">
          <mxGeometry x="64" width="146" height="38" as="geometry">
            <mxRectangle width="146" height="38" as="alternateBounds" />
          </mxGeometry>
        </mxCell>
        <mxCell id="WM4lGX3-adWGy5xj4ATB-45" style="shape=tableRow;horizontal=0;startSize=0;swimlaneHead=0;swimlaneBody=0;strokeColor=inherit;top=0;left=0;bottom=0;right=0;collapsible=0;dropTarget=0;fillColor=none;points=[[0,0.5],[1,0.5]];portConstraint=eastwest;fontSize=16;" parent="WM4lGX3-adWGy5xj4ATB-32" vertex="1">
          <mxGeometry y="113" width="210" height="37" as="geometry" />
        </mxCell>
        <mxCell id="WM4lGX3-adWGy5xj4ATB-46" value="Version" style="shape=partialRectangle;html=1;whiteSpace=wrap;connectable=0;strokeColor=inherit;overflow=hidden;fillColor=none;top=0;left=0;bottom=0;right=0;pointerEvents=1;fontSize=16;" parent="WM4lGX3-adWGy5xj4ATB-45" vertex="1">
          <mxGeometry width="64" height="37" as="geometry">
            <mxRectangle width="64" height="37" as="alternateBounds" />
          </mxGeometry>
        </mxCell>
        <mxCell id="WM4lGX3-adWGy5xj4ATB-47" value="V. 1.0 19.12.2023" style="shape=partialRectangle;html=1;whiteSpace=wrap;connectable=0;strokeColor=inherit;overflow=hidden;fillColor=none;top=0;left=0;bottom=0;right=0;pointerEvents=1;fontSize=16;" parent="WM4lGX3-adWGy5xj4ATB-45" vertex="1">
          <mxGeometry x="64" width="146" height="37" as="geometry">
            <mxRectangle width="146" height="37" as="alternateBounds" />
          </mxGeometry>
        </mxCell>
        <mxCell id="6LUjdudGBxqAWAHwBbXk-3" value="detenir" style="swimlane;fontSize=16;rounded=1;swimlaneLine=0;startSize=23;" vertex="1" parent="WIyWlLk6GJQsqaUBKTNV-1">
          <mxGeometry x="361" y="230" width="144" height="50" as="geometry" />
        </mxCell>
        <mxCell id="6LUjdudGBxqAWAHwBbXk-9" value="" style="endArrow=none;html=1;rounded=0;exitX=0;exitY=0.5;exitDx=0;exitDy=0;" edge="1" parent="WIyWlLk6GJQsqaUBKTNV-1" source="6LUjdudGBxqAWAHwBbXk-3">
          <mxGeometry relative="1" as="geometry">
            <mxPoint x="470" y="210" as="sourcePoint" />
            <mxPoint x="505" y="66" as="targetPoint" />
            <Array as="points">
              <mxPoint x="340" y="255" />
              <mxPoint x="340" y="210" />
              <mxPoint x="470" y="210" />
              <mxPoint x="470" y="100" />
              <mxPoint x="470" y="66" />
            </Array>
          </mxGeometry>
        </mxCell>
        <mxCell id="6LUjdudGBxqAWAHwBbXk-10" value="1,n" style="edgeLabel;html=1;align=center;verticalAlign=middle;resizable=0;points=[];" vertex="1" connectable="0" parent="6LUjdudGBxqAWAHwBbXk-9">
          <mxGeometry x="0.2187" y="-1" relative="1" as="geometry">
            <mxPoint as="offset" />
          </mxGeometry>
        </mxCell>
        <mxCell id="6LUjdudGBxqAWAHwBbXk-11" value="" style="endArrow=none;html=1;rounded=0;" edge="1" parent="WIyWlLk6GJQsqaUBKTNV-1">
          <mxGeometry relative="1" as="geometry">
            <mxPoint x="505" y="254.92" as="sourcePoint" />
            <mxPoint x="520" y="590" as="targetPoint" />
            <Array as="points">
              <mxPoint x="520" y="255" />
              <mxPoint x="540" y="255" />
              <mxPoint x="540" y="320" />
              <mxPoint x="520" y="320" />
              <mxPoint x="480" y="320" />
              <mxPoint x="480" y="590" />
            </Array>
          </mxGeometry>
        </mxCell>
        <mxCell id="6LUjdudGBxqAWAHwBbXk-12" value="1,n" style="edgeLabel;html=1;align=center;verticalAlign=middle;resizable=0;points=[];" vertex="1" connectable="0" parent="6LUjdudGBxqAWAHwBbXk-11">
          <mxGeometry x="-0.1192" y="-3" relative="1" as="geometry">
            <mxPoint x="3" y="6" as="offset" />
          </mxGeometry>
        </mxCell>
      </root>
    </mxGraphModel>
  </diagram>
</mxfile>
